<?xml version="1.0" encoding="utf-8"?>
<!-- Generator: Adobe Illustrator 25.0.1, SVG Export Plug-In . SVG Version: 6.00 Build 0)  -->
<svg version="1.0" id="Layer_1" xmlns="http://www.w3.org/2000/svg" xmlns:xlink="http://www.w3.org/1999/xlink" x="0px" y="0px"
	 viewBox="0 0 1032 760" style="enable-background:new 0 0 1032 760;" xml:space="preserve">
<style type="text/css">
	.st0{fill:none;}
	.st1{fill:#F78B00;}
	.st2{fill:#ED5505;}
	.st3{fill:#00285F;}
</style>
<g>
	<rect x="118.4" y="71.7" class="st0" width="795.1" height="604.3"/>
	<g>
		<polygon class="st1" points="545.3,551 788.6,551 788.6,388.8 		"/>
		<polygon class="st2" points="243.4,386.1 243.4,551 788.6,386.1 		"/>
	</g>
	<path class="st3" d="M815.8,201.4c7.3,0,13.3,5.9,13.3,13.2s-5.9,13.1-13.3,13.1c-7.3,0-13.3-5.8-13.3-13.1
		S808.5,201.4,815.8,201.4z M815.8,225.8c6.2,0,11.2-5.1,11.2-11.2c0-6.2-5-11.2-11.2-11.2c-6.2,0-11.2,5-11.2,11.2
		C804.6,220.7,809.6,225.8,815.8,225.8z M810.6,207.1h5.2c2.8,0,5.5,1.2,5.5,4.4c0,2.2-1.3,3.5-3.4,4l4,6.5h-3.3l-3.5-6.2h-1.9v6.2
		h-2.7V207.1z M815.5,213.6c1.5,0,3.2-0.4,3.2-2.2c0-1.6-1.6-2-3-2h-2.4v4.2H815.5z M783.5,303.5c-10.4,0-15.3-5.1-15.3-16v-41.9
		h20.1v-18.1h-20.1v-26h-20.5v86c0,21.8,12.5,34.8,32.6,34.8c4.2,0,8.3-0.6,8.3-0.6v-18.4C786,303.5,784.5,303.5,783.5,303.5z
		 M724.4,238.4c-8.6-9-20.2-13.2-32.3-13.2c-26,0-46,21.6-46,48.7c0,27.4,19.6,48.3,46.5,48.3c14.2,0,28.5-7.3,37.2-18.6l-16-11.2
		c-5.3,7.2-14.2,11-21.2,11c-11,0-22.1-7.8-24.9-21.3h68.8C736.5,282.2,742.8,257.7,724.4,238.4z M667.9,265.1
		c0.7-5.6,7.5-21.1,24.2-21.1c16.3,0,23.4,15,24,21.1H667.9z M615.2,227.4v8.5c-7.3-7-17.2-10.6-27.1-10.6
		c-26.3,0-46.9,21-46.9,48.4c0,27.5,20.6,48.6,46.9,48.6c9.6,0,19.2-3.5,26.6-10.2c0,0,4.1,35.5-27.1,35.5
		c-13.2,0-22.5-9.5-26.7-16.6c0,0-16.4,11.5-16.4,11.5c8.1,15.1,25.1,24.3,43.1,24.3c12.1,0,24-3.4,32.4-10.8
		c9.9-8.8,15.4-20.9,15.4-37.3v-91.2H615.2z M588.1,303.4c-14.8,0-26.3-13.2-26.3-29.8c0-16.2,11.8-29.4,26.3-29.4
		c14.4,0,26.6,13.4,26.6,29.4C614.7,289.9,602.8,303.4,588.1,303.4z M482.7,322.3c-26.3,0-46.9-21-46.9-48.4
		c0-27.5,20.6-48.6,46.9-48.6c9.6,0,19.2,3.5,26.6,10.2v-38.8h20.5v123.7h-20v-8.7C502.5,318.7,492.6,322.3,482.7,322.3z
		 M482.7,244.3c-14.8,0-26.3,13-26.3,29.7c0,16.2,11.8,29.3,26.3,29.3c14.4,0,26.6-13.4,26.6-29.3
		C509.3,257.7,497.4,244.3,482.7,244.3z M425.6,275.4v-48h-20.5v48c0,17-8.7,28.1-22.4,28.1c-13.6,0-22.4-11-22.4-28.1v-48h-20.6v48
		c0,28.6,19.1,46.9,42.9,46.9C406.6,322.3,425.6,304,425.6,275.4z M243.4,321.6v-125h43.4c16.9,0,37.3,8.9,37.3,32.4
		c0,14-6.6,23-12.5,26.4c15.9,6.1,19,21.2,19,30.1c0,20-16.5,36.1-42.7,36.1H243.4z M285.5,302.9c5.4,0,9.6-0.6,12.9-2
		c6.7-3,10.7-8.5,10.9-16.6c0-7.7-4.3-13.5-10.9-16.4c-4.8-2-8.6-2.1-14.5-2.1h-19.6v37H285.5z M282.1,248c3.8,0,9.9-0.2,13.4-1.9
		c5.4-3,7.1-7.6,7.1-14.7c0-7.6-4.6-12.1-8.4-13.9c-2.9-1.5-6.7-2.1-12.7-2.1h-17.3V248H282.1z"/>
</g>
</svg>
